<?xml version="1.0" encoding="UTF-8" standalone="no"?>
<!DOCTYPE svg PUBLIC "-//W3C//DTD SVG 1.1//EN" "http://www.w3.org/Graphics/SVG/1.1/DTD/svg11.dtd">
<svg width="100%" height="100%" viewBox="0 0 100 100" version="1.1" xmlns="http://www.w3.org/2000/svg" xmlns:xlink="http://www.w3.org/1999/xlink" xml:space="preserve" xmlns:serif="http://www.serif.com/" style="fill-rule:evenodd;clip-rule:evenodd;stroke-linecap:round;stroke-linejoin:round;stroke-miterlimit:1.5;">
    <g transform="matrix(1.12805,0,0,1.12805,-6.40301,-2.86361)">
        <g transform="matrix(2.95714,0,0,4.14,-96.735,-80.7003)">
            <ellipse cx="49.621" cy="26.739" rx="7.609" ry="5.435" style="fill:none;stroke:rgb(255,255,255);stroke-width:0.25px;"/>
        </g>
        <g transform="matrix(1.02273,7.56365e-32,1.26061e-32,1.02273,-255.301,-60.1023)">
            <path d="M295.5,97.5L287.8,89.8L289.2,88.4L295.5,94.7L310.8,79.4L312.2,80.8L295.5,97.5Z" style="fill:rgb(255,255,255);"/>
        </g>
        <path d="M43.681,54.8L43.735,55.68C43.85,56.07 44.06,56.397 44.365,56.662C44.67,56.927 45.038,57.095 45.47,57.167C45.868,57.233 46.254,57.2 46.629,57.068C47.004,56.937 47.316,56.703 47.564,56.367C47.75,56.116 47.887,55.83 47.959,55.502L47.96,55.5L48.162,56.365C48.206,56.455 48.256,56.54 48.31,56.621L39.411,91.187L29.727,88.694L38.596,54.243C38.711,54.192 38.824,54.13 38.934,54.056C39.188,53.885 39.41,53.666 39.585,53.389L39.593,53.315L39.636,53.316L39.585,53.389L39.49,54.251C39.537,54.655 39.689,55.013 39.944,55.326C40.2,55.639 40.534,55.868 40.947,56.012C41.327,56.145 41.714,56.178 42.106,56.112C42.498,56.047 42.845,55.869 43.147,55.581C43.371,55.366 43.555,55.109 43.681,54.8Z" style="fill:none;stroke:rgb(255,255,255);stroke-width:0.89px;"/>
        <path d="M56.561,54.727L57.042,55.478C57.333,55.762 57.675,55.946 58.071,56.028C58.466,56.111 58.869,56.079 59.281,55.931C59.661,55.795 59.982,55.578 60.246,55.28C60.509,54.982 60.668,54.626 60.721,54.212C60.751,53.979 60.748,53.741 60.702,53.5L60.846,53.501L61.232,53.924C61.566,54.155 61.935,54.277 62.338,54.292C62.703,54.305 63.059,54.224 63.405,54.049L74.09,85.665L64.617,88.867L53.887,57.118C54.165,57.177 54.457,57.181 54.763,57.127C55.16,57.058 55.514,56.899 55.825,56.65C56.135,56.402 56.352,56.078 56.475,55.679L56.525,55.132L56.753,55.026L56.561,54.727Z" style="fill:none;stroke:rgb(255,255,255);stroke-width:0.89px;"/>
        <g transform="matrix(0.886486,0,0,0.886486,5.67618,2.53855)">
            <path d="M52.882,59.034L53.143,58.993L53.156,59.294C53.265,59.917 53.518,60.377 53.915,60.677C54.312,60.977 54.762,61.082 55.266,60.994C55.781,60.905 56.172,60.65 56.441,60.23C56.71,59.81 56.787,59.268 56.671,58.604L56.583,58.374L57.148,58.228L57.219,58.588L57.401,58.871C57.447,59.249 57.407,59.607 57.304,59.945C57.165,60.395 56.92,60.761 56.57,61.04C56.22,61.321 55.82,61.501 55.372,61.579C54.886,61.663 54.432,61.622 54.009,61.454C53.584,61.286 53.239,61.017 52.971,60.644L52.588,59.736L52.588,59.739C52.569,60.109 52.471,60.448 52.315,60.756C52.102,61.177 51.8,61.496 51.407,61.714C51.016,61.93 50.592,62.041 50.137,62.043C49.644,62.044 49.203,61.927 48.813,61.691C48.424,61.454 48.128,61.13 47.926,60.719L47.698,59.743L47.697,59.745C47.616,60.115 47.461,60.438 47.252,60.721C46.972,61.1 46.62,61.364 46.197,61.512C45.774,61.661 45.338,61.698 44.889,61.624C44.402,61.542 43.987,61.353 43.643,61.054C43.299,60.755 43.062,60.386 42.932,59.946L42.871,58.954L43.042,58.593L43.079,58.287L43.645,58.432L43.553,58.734C43.45,59.357 43.536,59.876 43.811,60.29C44.087,60.704 44.478,60.954 44.983,61.037C45.497,61.123 45.951,61.012 46.343,60.705C46.736,60.397 46.988,59.911 47.098,59.246L47.093,59.029L47.117,59.034L48.376,59.097L48.336,59.418C48.338,60.05 48.509,60.547 48.851,60.91C49.192,61.272 49.618,61.451 50.13,61.449C50.653,61.447 51.081,61.262 51.416,60.893C51.752,60.524 51.918,60.003 51.916,59.328L51.868,59.084L52.882,59.034ZM38.572,56.743L39.027,56.961L39.092,56.985L38.962,57.246C38.754,57.842 38.751,58.368 38.951,58.823C39.153,59.278 39.495,59.59 39.979,59.759C40.471,59.93 40.937,59.899 41.377,59.663C41.815,59.427 42.146,58.991 42.368,58.355L42.403,58.113L42.963,58.256L42.85,58.606L42.871,58.954C42.729,59.302 42.522,59.592 42.269,59.835C41.928,60.159 41.537,60.36 41.095,60.434C40.652,60.508 40.216,60.471 39.787,60.321C39.321,60.158 38.945,59.9 38.656,59.547C38.368,59.194 38.197,58.79 38.144,58.334L38.251,57.362L38.489,57.022L38.572,56.743ZM57.26,58.199L57.829,58.052L57.896,58.357C58.109,58.951 58.436,59.362 58.878,59.59C59.321,59.818 59.783,59.845 60.266,59.672C60.757,59.495 61.098,59.178 61.292,58.718C61.485,58.259 61.468,57.712 61.241,57.076L61.129,56.886L61.638,56.641L61.764,56.974L62.014,57.247C62.118,57.6 62.137,57.95 62.093,58.29C62.034,58.757 61.854,59.159 61.557,59.495C61.26,59.831 60.898,60.076 60.469,60.229C60.004,60.396 59.55,60.432 59.104,60.339C58.657,60.246 58.271,60.039 57.943,59.718L57.401,58.871L57.375,58.484L57.26,58.199ZM34.383,54.449L34.881,54.752L34.696,55.002C34.391,55.555 34.298,56.072 34.42,56.554C34.541,57.037 34.825,57.402 35.273,57.651C35.73,57.904 36.194,57.952 36.667,57.794C37.14,57.636 37.539,57.263 37.865,56.673L37.942,56.438L38.456,56.686L38.29,57L38.251,57.362C38.053,57.674 37.803,57.921 37.516,58.114C37.126,58.377 36.707,58.508 36.259,58.506C35.81,58.503 35.387,58.393 34.989,58.172C34.558,57.933 34.229,57.615 34.005,57.219C33.78,56.822 33.681,56.394 33.706,55.936L33.982,54.976L34.26,54.695L34.383,54.449ZM61.756,56.583L62.273,56.335L62.392,56.631C62.702,57.18 63.095,57.53 63.57,57.68C64.044,57.829 64.504,57.778 64.95,57.525C65.404,57.268 65.687,56.897 65.8,56.412C65.913,55.926 65.803,55.389 65.472,54.802L65.323,54.627L65.763,54.36L65.814,54.322L65.981,54.605L66.254,54.818C66.422,55.155 66.503,55.504 66.518,55.854C66.538,56.325 66.43,56.75 66.193,57.132C65.957,57.513 65.641,57.816 65.245,58.04C64.815,58.283 64.373,58.396 63.917,58.38C63.463,58.364 63.047,58.226 62.67,57.965L62.014,57.247L61.915,56.838L61.756,56.583ZM30.658,51.457L31.088,51.848L30.862,52.065C30.467,52.557 30.289,53.053 30.327,53.548C30.366,54.044 30.585,54.453 30.984,54.773C31.391,55.099 31.841,55.224 32.333,55.149C32.826,55.073 33.283,54.772 33.705,54.245L33.811,54.042L34.277,54.385L34.077,54.646L33.982,54.976C33.731,55.258 33.437,55.463 33.118,55.608C32.688,55.802 32.253,55.859 31.811,55.781C31.37,55.705 30.972,55.523 30.616,55.239C30.232,54.931 29.962,54.562 29.807,54.132C29.653,53.704 29.627,53.266 29.728,52.818L30.158,51.927L30.486,51.692L30.658,51.457ZM50.005,2.777L49.955,3.275L49.89,2.782L49.994,2.777L49.299,2.812L49.314,2.488C49.259,1.858 49.047,1.378 48.679,1.045C48.309,0.711 47.869,0.567 47.359,0.611C46.839,0.656 46.427,0.876 46.122,1.271C45.818,1.666 45.695,2.198 45.752,2.87L45.823,3.12L45.145,3.223L45.259,3.206L45.296,3.755L45.132,3.226L44.565,3.312L44.525,3.006C44.366,2.394 44.075,1.957 43.655,1.69C43.235,1.425 42.777,1.356 42.281,1.486C41.776,1.619 41.407,1.905 41.174,2.346C40.941,2.787 40.91,3.333 41.08,3.986L41.185,4.204L40.638,4.404L40.755,4.887L40.531,4.444L40.61,4.415L39.977,4.646L39.881,4.333C39.619,3.758 39.259,3.376 38.799,3.185C38.34,2.995 37.877,3.007 37.412,3.219C36.937,3.435 36.622,3.781 36.466,4.254C36.312,4.728 36.374,5.272 36.654,5.886L36.787,6.074L36.562,6.182L36.285,6.351L36.133,6.036L35.874,5.794C35.738,5.446 35.688,5.095 35.704,4.747C35.725,4.276 35.87,3.861 36.138,3.502C36.406,3.142 36.748,2.868 37.162,2.68C37.611,2.475 38.061,2.401 38.514,2.457C38.966,2.513 39.369,2.688 39.721,2.98L40.33,3.776L40.329,3.774C40.253,3.404 40.262,3.045 40.338,2.701C40.439,2.241 40.652,1.857 40.978,1.548C41.304,1.24 41.687,1.028 42.128,0.913C42.604,0.788 43.061,0.792 43.497,0.924C43.933,1.056 44.299,1.297 44.598,1.645L45.048,2.508L45.048,2.506C45.039,2.139 45.109,1.796 45.238,1.479C45.416,1.043 45.691,0.7 46.065,0.452C46.438,0.202 46.851,0.059 47.305,0.02C47.795,-0.022 48.245,0.058 48.653,0.262C49.06,0.466 49.381,0.765 49.616,1.159L49.925,2.121L49.925,2.119C49.976,1.741 50.104,1.404 50.291,1.103C50.539,0.702 50.867,0.411 51.276,0.227C51.686,0.045 52.117,-0.028 52.57,0.01C53.062,0.05 53.492,0.205 53.86,0.474C54.227,0.744 54.494,1.092 54.659,1.52L54.799,2.489L54.8,2.488C54.913,2.135 55.094,1.832 55.322,1.574C55.634,1.221 56.007,0.99 56.442,0.879C56.876,0.768 57.314,0.77 57.755,0.883C58.232,1.006 58.629,1.231 58.946,1.559C59.263,1.887 59.466,2.276 59.557,2.725L59.53,3.731C59.704,3.393 59.938,3.118 60.214,2.897C60.582,2.603 60.989,2.438 61.436,2.403C61.882,2.368 62.313,2.444 62.728,2.631C63.178,2.834 63.532,3.124 63.788,3.501C64.044,3.878 64.178,4.295 64.191,4.754L63.996,5.725L63.999,5.723C64.223,5.425 64.496,5.2 64.801,5.03C65.212,4.803 65.642,4.709 66.089,4.751C66.536,4.791 66.947,4.939 67.324,5.194C67.734,5.469 68.032,5.816 68.221,6.23C68.409,6.645 68.471,7.079 68.407,7.534L68.056,8.445L68.058,8.443C68.328,8.191 68.631,8.018 68.955,7.904C69.4,7.748 69.839,7.728 70.272,7.844C70.705,7.959 71.086,8.173 71.416,8.488C71.773,8.829 72.01,9.219 72.126,9.66C72.242,10.1 72.231,10.539 72.092,10.975L71.575,11.847C71.893,11.634 72.232,11.507 72.583,11.447C73.047,11.368 73.483,11.422 73.89,11.608C74.299,11.795 74.638,12.071 74.91,12.436C75.205,12.832 75.373,13.256 75.413,13.711C75.455,14.164 75.369,14.595 75.16,15.002L74.518,15.756L74.52,15.756C74.862,15.605 75.21,15.539 75.558,15.539C76.029,15.541 76.45,15.667 76.82,15.92C77.191,16.172 77.479,16.502 77.685,16.908C77.91,17.348 78.003,17.794 77.967,18.249C77.931,18.704 77.774,19.113 77.498,19.479L76.743,20.11L76.746,20.11C77.107,20.02 77.458,20.016 77.8,20.075C78.264,20.155 78.656,20.352 78.979,20.664C79.302,20.975 79.53,21.349 79.664,21.784C79.81,22.256 79.826,22.713 79.713,23.154C79.602,23.596 79.377,23.974 79.043,24.286L78.18,24.787L78.183,24.787C78.557,24.759 78.91,24.814 79.24,24.932C79.683,25.091 80.037,25.351 80.301,25.713C80.566,26.075 80.728,26.483 80.786,26.934C80.851,27.423 80.788,27.876 80.602,28.292C80.416,28.708 80.132,29.042 79.75,29.294L78.803,29.645L78.805,29.645C79.184,29.68 79.525,29.793 79.833,29.966C80.244,30.196 80.549,30.513 80.749,30.914C80.95,31.315 81.041,31.744 81.023,32.198C81.004,32.691 80.867,33.128 80.615,33.507C80.362,33.886 80.025,34.168 79.606,34.352L78.636,34.535L78.638,34.536C78.998,34.633 79.31,34.801 79.58,35.02C79.946,35.316 80.194,35.68 80.323,36.108C80.452,36.538 80.47,36.976 80.377,37.421C80.274,37.904 80.067,38.311 79.753,38.642C79.44,38.972 79.061,39.193 78.616,39.304L77.631,39.321L77.633,39.322C77.971,39.479 78.248,39.698 78.476,39.958C78.786,40.313 78.969,40.713 79.023,41.159C79.078,41.603 79.021,42.037 78.853,42.46C78.67,42.918 78.396,43.285 78.032,43.557C77.666,43.83 77.255,43.983 76.799,44.016L75.817,43.864L75.818,43.865C76.127,44.078 76.365,44.342 76.547,44.64C76.793,45.041 76.905,45.467 76.883,45.914C76.862,46.362 76.732,46.781 76.494,47.169C76.237,47.59 75.905,47.904 75.499,48.111C75.093,48.317 74.662,48.398 74.206,48.354L73.272,48.04L73.273,48.042C73.54,48.301 73.728,48.6 73.857,48.922C74.031,49.359 74.071,49.797 73.974,50.236C73.878,50.674 73.68,51.064 73.381,51.407C73.056,51.779 72.676,52.032 72.241,52.168C71.806,52.304 71.367,52.312 70.926,52.191L70.035,51.711L70.036,51.714C70.262,52.022 70.404,52.354 70.477,52.701C70.576,53.161 70.541,53.6 70.372,54.015C70.204,54.431 69.943,54.783 69.59,55.071C69.208,55.382 68.792,55.568 68.339,55.629C67.888,55.689 67.455,55.624 67.04,55.43L66.254,54.818L66.096,54.454L65.913,54.247L66.379,53.899L66.541,54.162C66.941,54.651 67.386,54.93 67.878,54.997C68.371,55.064 68.816,54.937 69.214,54.613C69.617,54.282 69.835,53.868 69.864,53.371C69.894,52.873 69.695,52.363 69.27,51.84L69.087,51.688L69.937,50.915L70.034,50.809L70.222,51.023C70.697,51.44 71.183,51.639 71.681,51.622C72.177,51.607 72.594,51.405 72.932,51.019C73.275,50.626 73.419,50.182 73.365,49.687C73.311,49.19 73.03,48.721 72.522,48.277L72.32,48.159L73.086,47.136L73.316,47.322C73.854,47.653 74.368,47.768 74.855,47.667C75.342,47.568 75.719,47.3 75.986,46.862C76.259,46.418 76.327,45.955 76.191,45.476C76.054,44.996 75.698,44.58 75.123,44.228L74.921,44.152L75.478,43L75.746,43.15C76.333,43.384 76.858,43.41 77.321,43.23C77.784,43.048 78.11,42.72 78.3,42.244C78.494,41.759 78.482,41.292 78.266,40.843C78.051,40.394 77.629,40.044 77.003,39.794L76.788,39.753L76.932,39.36L77.146,38.529L77.433,38.629C78.051,38.76 78.572,38.697 78.998,38.44C79.424,38.183 79.69,37.804 79.796,37.302C79.903,36.791 79.813,36.333 79.523,35.927C79.234,35.521 78.759,35.248 78.1,35.109L77.865,35.104L78.055,33.86L78.056,33.841L78.326,33.887C78.957,33.911 79.46,33.761 79.836,33.436C80.212,33.11 80.411,32.691 80.431,32.179C80.451,31.657 80.284,31.22 79.93,30.87C79.577,30.519 79.064,30.329 78.389,30.303L78.168,30.337L78.104,29.05L78.409,29.05C79.035,28.969 79.507,28.736 79.823,28.352C80.14,27.968 80.265,27.523 80.199,27.014C80.131,26.496 79.894,26.093 79.487,25.807C79.079,25.519 78.541,25.42 77.872,25.507L77.669,25.575L77.628,25.297L77.377,24.327L77.682,24.274C78.284,24.088 78.709,23.778 78.957,23.346C79.202,22.913 79.25,22.453 79.099,21.964C78.944,21.465 78.642,21.109 78.192,20.894C77.742,20.681 77.195,20.674 76.55,20.874L76.342,20.986L75.983,20.005L75.881,19.794L76.154,19.699C76.716,19.412 77.083,19.034 77.253,18.567C77.422,18.099 77.391,17.636 77.158,17.18C76.922,16.715 76.564,16.415 76.083,16.281C75.604,16.147 75.064,16.233 74.462,16.539L74.275,16.685L73.611,15.591L73.871,15.445C74.378,15.068 74.674,14.634 74.764,14.144C74.852,13.654 74.743,13.204 74.436,12.794C74.125,12.375 73.721,12.139 73.226,12.089C72.73,12.038 72.212,12.214 71.672,12.617L71.52,12.782L70.652,11.827L70.897,11.628C71.332,11.172 71.553,10.694 71.558,10.197C71.562,9.699 71.379,9.273 71.009,8.92C70.632,8.559 70.194,8.395 69.697,8.428C69.2,8.462 68.718,8.723 68.254,9.211L68.132,9.399L67.933,9.22L67.128,8.617L67.339,8.377C67.692,7.854 67.828,7.346 67.75,6.855C67.672,6.364 67.42,5.975 66.996,5.688C66.563,5.396 66.105,5.308 65.62,5.424C65.136,5.54 64.705,5.878 64.328,6.437L64.231,6.665L63.437,6.182L63.119,6.029L63.28,5.767C63.539,5.191 63.589,4.667 63.429,4.196C63.269,3.725 62.955,3.385 62.488,3.174C62.012,2.959 61.545,2.95 61.087,3.147C60.629,3.343 60.262,3.748 59.985,4.363L59.926,4.611L58.716,4.168L58.832,3.879C58.99,3.267 58.949,2.743 58.711,2.306C58.473,1.869 58.106,1.587 57.61,1.459C57.105,1.328 56.644,1.399 56.225,1.67C55.808,1.942 55.515,2.404 55.346,3.058L55.332,3.297L54.069,3.104L54.139,2.779C54.191,2.149 54.063,1.64 53.755,1.249C53.446,0.859 53.036,0.643 52.526,0.602C52.006,0.559 51.563,0.707 51.196,1.045C50.831,1.383 50.62,1.889 50.565,2.561L50.592,2.807L50.005,2.777ZM27.475,47.887L27.828,48.359L27.577,48.529C27.106,48.949 26.846,49.407 26.801,49.902C26.756,50.397 26.903,50.837 27.243,51.22C27.591,51.61 28.013,51.808 28.511,51.816C29.009,51.824 29.51,51.604 30.014,51.155L30.141,50.987L30.565,51.373L30.311,51.609L30.158,51.927C29.865,52.16 29.545,52.313 29.207,52.401C28.752,52.519 28.313,52.503 27.89,52.352C27.468,52.202 27.106,51.957 26.802,51.617C26.475,51.248 26.271,50.839 26.191,50.391C26.111,49.942 26.158,49.506 26.332,49.082L26.915,48.262L27.264,48.093L27.475,47.887ZM24.931,43.849L25.181,44.369L24.927,44.484C24.392,44.819 24.06,45.226 23.931,45.708C23.804,46.189 23.875,46.647 24.147,47.081C24.423,47.524 24.806,47.79 25.295,47.883C25.785,47.974 26.316,47.841 26.888,47.484L27.056,47.328L27.406,47.795L27.11,47.988L26.915,48.262C26.582,48.447 26.236,48.545 25.884,48.575C25.415,48.616 24.984,48.526 24.594,48.307C24.202,48.087 23.886,47.785 23.645,47.398C23.384,46.979 23.251,46.543 23.248,46.087C23.244,45.63 23.364,45.208 23.608,44.82L24.307,44.123L24.696,44.01L24.931,43.849ZM23.095,39.437L23.295,39.982L23.004,40.059C22.42,40.298 22.024,40.643 21.816,41.095C21.608,41.548 21.601,42.01 21.795,42.485C21.992,42.968 22.325,43.296 22.792,43.47C23.259,43.644 23.805,43.602 24.429,43.347L24.626,43.217L24.876,43.735L24.559,43.873L24.307,44.123C23.954,44.245 23.601,44.282 23.255,44.252C22.785,44.212 22.377,44.051 22.028,43.769C21.68,43.487 21.419,43.135 21.248,42.713C21.06,42.256 21.004,41.803 21.077,41.353C21.151,40.902 21.341,40.508 21.647,40.166L22.463,39.591L22.855,39.547L23.095,39.437ZM21.168,29.925C20.798,29.86 20.471,29.719 20.182,29.524C19.791,29.26 19.513,28.92 19.346,28.504C19.179,28.088 19.124,27.654 19.178,27.201C19.238,26.712 19.409,26.287 19.692,25.931C19.975,25.573 20.334,25.321 20.767,25.172L22.037,25.038L22.151,25.086L22.362,25.103L22.418,25.119L22.371,25.297L22.292,25.814L22.005,25.739C21.377,25.664 20.864,25.772 20.463,26.065C20.061,26.36 19.829,26.76 19.768,27.269C19.705,27.788 19.835,28.236 20.158,28.615C20.482,28.995 20.979,29.225 21.648,29.306L21.884,29.289L21.819,30.571L21.529,30.546C20.898,30.576 20.41,30.769 20.062,31.126C19.716,31.482 19.555,31.916 19.578,32.429C19.603,32.95 19.806,33.37 20.189,33.69C20.571,34.01 21.099,34.153 21.772,34.122L21.976,34.072L22.169,35.338L21.861,35.365C21.244,35.5 20.795,35.773 20.513,36.184C20.231,36.593 20.146,37.049 20.256,37.55C20.369,38.06 20.64,38.44 21.071,38.69C21.502,38.941 22.046,38.993 22.705,38.848L22.912,38.758L23.056,39.316L22.744,39.392L22.463,39.591C22.09,39.653 21.733,39.629 21.393,39.54C20.938,39.42 20.563,39.192 20.267,38.854C19.972,38.517 19.776,38.125 19.678,37.681C19.571,37.199 19.593,36.742 19.742,36.311C19.891,35.88 20.146,35.523 20.504,35.239L21.403,34.812L21.401,34.812C21.027,34.81 20.681,34.726 20.363,34.582C19.935,34.388 19.603,34.099 19.37,33.716C19.135,33.333 19.007,32.915 18.986,32.46C18.962,31.967 19.06,31.52 19.28,31.121C19.5,30.722 19.812,30.413 20.213,30.193L21.169,29.925L21.168,29.925ZM23.18,20.246L23.539,20.478L23.816,20.55L23.621,21.083L23.337,20.954C22.733,20.769 22.208,20.786 21.761,21.005C21.314,21.224 21.017,21.578 20.868,22.069C20.714,22.568 20.765,23.032 21.018,23.463C21.269,23.893 21.718,24.205 22.363,24.402L22.596,24.427L22.421,25.108L22.362,25.103L22.102,25.031L22.037,25.038C21.577,24.892 21.194,24.663 20.881,24.361C20.543,24.034 20.328,23.65 20.236,23.21C20.145,22.771 20.166,22.334 20.299,21.898C20.442,21.427 20.685,21.04 21.027,20.737C21.367,20.435 21.764,20.249 22.218,20.178L23.18,20.246ZM25.4,15.89L25.696,16.162L25.968,16.284L25.665,16.781L25.408,16.608C24.845,16.323 24.324,16.251 23.847,16.391C23.37,16.53 23.015,16.829 22.785,17.287C22.551,17.753 22.521,18.22 22.697,18.686C22.873,19.153 23.262,19.537 23.864,19.841L24.067,19.898L24.016,20.005L23.864,20.42L23.556,20.273L23.18,20.246C22.864,20.062 22.612,19.824 22.411,19.548C22.133,19.168 21.985,18.754 21.971,18.305C21.955,17.858 22.05,17.43 22.254,17.023C22.476,16.582 22.781,16.242 23.168,16.002C23.556,15.763 23.979,15.647 24.437,15.653L25.4,15.89ZM28.801,12.427L28.403,12.866L28.191,12.662C27.683,12.286 27.182,12.127 26.688,12.185C26.194,12.242 25.795,12.477 25.49,12.888C25.18,13.309 25.073,13.764 25.168,14.253C25.262,14.743 25.581,15.187 26.123,15.589L26.331,15.687L26.031,16.18L25.74,15.974L25.4,15.89C25.11,15.651 24.896,15.368 24.74,15.055C24.53,14.634 24.455,14.2 24.516,13.755C24.575,13.31 24.741,12.905 25.011,12.539C25.304,12.142 25.662,11.859 26.085,11.687C26.507,11.517 26.943,11.473 27.393,11.557L28.323,11.962L28.556,12.262L28.801,12.427ZM32.228,9.098L32.066,9.22L31.783,9.476L31.603,9.232C31.166,8.777 30.699,8.535 30.202,8.509C29.706,8.482 29.273,8.647 28.904,9.001C28.527,9.363 28.344,9.793 28.356,10.292C28.367,10.79 28.606,11.283 29.074,11.769L29.273,11.909L28.876,12.346L28.624,12.093L28.323,11.962C28.071,11.672 27.902,11.352 27.799,11.01C27.664,10.559 27.663,10.12 27.797,9.692C27.93,9.264 28.162,8.892 28.49,8.576C28.845,8.234 29.246,8.014 29.69,7.917C30.136,7.82 30.573,7.851 31.003,8.009L31.838,8.556L32.024,8.904L32.228,9.098ZM36.177,6.416L35.681,6.717L35.537,6.429C35.181,5.907 34.762,5.59 34.277,5.481C33.792,5.371 33.337,5.46 32.914,5.748C32.482,6.041 32.23,6.435 32.157,6.928C32.085,7.422 32.238,7.948 32.617,8.505L32.79,8.677L32.325,9.026L32.126,8.744L31.838,8.556C31.642,8.232 31.532,7.891 31.488,7.544C31.43,7.076 31.503,6.642 31.707,6.243C31.91,5.843 32.201,5.516 32.577,5.259C32.985,4.982 33.416,4.833 33.872,4.812C34.326,4.79 34.753,4.894 35.15,5.122L35.874,5.794L36.002,6.179L36.177,6.416Z" style="fill:rgb(255,255,255);stroke:rgb(255,255,255);stroke-width:0.18px;stroke-linecap:butt;stroke-miterlimit:2;"/>
        </g>
    </g>
</svg>
