<?xml version="1.0" encoding="UTF-8" standalone="no"?>
<!DOCTYPE svg PUBLIC "-//W3C//DTD SVG 1.1//EN" "http://www.w3.org/Graphics/SVG/1.1/DTD/svg11.dtd">
<svg width="100%" height="100%" viewBox="0 0 100 100" version="1.1" xmlns="http://www.w3.org/2000/svg"
    xmlns:xlink="http://www.w3.org/1999/xlink" xml:space="preserve" xmlns:serif="http://www.serif.com/"
    style="fill-rule:evenodd;clip-rule:evenodd;stroke-linejoin:round;stroke-miterlimit:2;">
    <g transform="matrix(3.34951,0,0,4.42308,-96.3592,-100)">
        <path
            d="M58.623,24.706C58.623,23.549 57.382,22.609 55.853,22.609L31.538,22.609C30.009,22.609 28.768,23.549 28.768,24.706L28.768,43.12C28.768,44.277 30.009,45.217 31.538,45.217L55.853,45.217C57.382,45.217 58.623,44.277 58.623,43.12L58.623,24.706Z"
            style="fill:rgb(0,85,255);" />
    </g>
    <g transform="matrix(1,0,0,1,-0.199503,21.1772)">
        <path
            d="M33.371,13.987L40.684,13.987L40.684,10.237C40.684,6.049 41.129,2.924 42.02,0.862C42.91,-1.201 44.551,-2.88 46.942,-4.177C49.332,-5.474 52.356,-6.123 56.012,-6.123C59.762,-6.123 63.434,-5.56 67.028,-4.435L65.246,4.752C63.153,4.252 61.137,4.002 59.2,4.002C57.293,4.002 55.926,4.448 55.098,5.338C54.27,6.229 53.856,7.94 53.856,10.471L53.856,13.987L63.7,13.987L63.7,24.346L53.856,24.346L53.856,63.768L40.684,63.768L40.684,24.346L33.371,24.346L33.371,13.987Z"
            style="fill:white;fill-rule:nonzero;" />
    </g>
</svg>