<?xml version="1.0" encoding="UTF-8" standalone="no"?>
<!DOCTYPE svg PUBLIC "-//W3C//DTD SVG 1.1//EN" "http://www.w3.org/Graphics/SVG/1.1/DTD/svg11.dtd">
<svg width="100%" height="100%" viewBox="0 0 245 90" version="1.1" xmlns="http://www.w3.org/2000/svg" xmlns:xlink="http://www.w3.org/1999/xlink" xml:space="preserve" xmlns:serif="http://www.serif.com/" style="fill-rule:evenodd;clip-rule:evenodd;stroke-linejoin:round;stroke-miterlimit:2;">
    <g transform="matrix(0.1,0,0,-0.1,0,90)">
        <path d="M1524,720C1513,716 1492,699 1479,683C1456,656 1447,653 1374,647C1331,644 1295.57,636.817 1270,631C1252.81,627.088 1221.53,613.231 1220.6,612.097C1217.96,608.871 1276.41,620.604 1304.37,624.479C1354.77,631.467 1456,635 1485,616L1512.82,600.704L1498,626C1487.87,649.721 1488.93,654.772 1505,666C1534.16,686.37 1567.14,682.642 1647.14,648.642C1675.32,634.16 1706.28,629.954 1724.52,629.727C1729.3,629.667 1733.24,629.672 1735.65,629.661C1736.84,629.656 1737.55,629.43 1738.01,629.617C1738.74,629.858 1724.62,638.094 1707.57,646.74C1694.96,653.138 1684.06,669.163 1668.7,677.859C1637.84,695.326 1604.54,712.424 1587,719C1554,732 1552,732 1524,720Z" style="fill:rgb(0,175,239);fill-rule:nonzero;"/>
        <path d="M1564.62,636.618C1561.09,627.211 1558.17,630.466 1540.45,630C1535.64,629.874 1530.79,629.504 1526.09,628.489C1522.99,627.822 1521.52,625.391 1522.97,622.478C1525.1,618.93 1534.66,615.912 1537.21,615.153C1546.09,612.513 1550.54,612.166 1559.7,611.577C1564.85,611.246 1573.63,612.052 1579.23,609.382C1586.73,605.799 1587.62,595.96 1589.25,588.873C1590.84,582.758 1590.95,575.617 1595.09,570.84C1597.81,567.694 1604.08,571.475 1605.64,573.792C1615.58,588.518 1621.52,602.052 1619.33,619.995C1618.92,623.375 1616.73,627.841 1614.53,630.276C1607.79,637.741 1594.04,651.247 1581.74,650.678C1577.49,650.481 1573.4,648.599 1569.85,644.197C1568.18,642.129 1565.72,639.039 1564.62,636.618Z" style="fill:rgb(0,175,239);fill-rule:nonzero;"/>
        <path d="M1575,91C1575,91 1576.18,99.465 1574.79,102.405C1574.77,102.431 1573.92,102.913 1573.8,103.005C1567.95,107.518 1549.82,108.098 1529,110C1505,113 1386,115 1265,114C1099,113 1036.08,107.448 970.706,97.282C949.355,93.961 870.218,72.551 870.218,72.551C870.218,72.551 967.536,82.258 1005,85C1034.95,87.192 1095,89 1095,89C1095,89 1044.63,79.402 1025,76C1009.11,73.247 985.152,70.39 977.198,68.588C960.231,64.745 908.752,51.821 913.331,50.315C915.661,49.548 968.854,57.593 987.465,58.873C999.951,59.733 1025,58 1025,58L995,51C969.665,46.989 911.322,32.276 918.319,31.672C927.315,30.897 1012.1,43.405 1049.88,47.006C1094.1,51.22 1161.62,45 1240,45C1480,45 1534,42 1665,21C1772,5 1838,-1 1895,3C1957.79,6.974 2060.85,32.325 2079.49,45.048C2082.07,46.809 2080.18,48.753 2075.15,48.835C2070.79,48.906 2063.57,47.144 2061,48C2052,51 2061.9,60.648 2086.9,75.648C2115.9,94.648 2119,100 2100,96C2046,82 1963,70 1920,70C1915.24,70 1910.89,69.913 1906.9,69.71C1899.9,69.354 1873.6,70.762 1870.4,69.279C1869.72,68.965 1870.9,64.684 1867.26,58.426C1864.14,53.056 1859.38,46.999 1854.94,42.232C1847.87,34.623 1828,17 1814,26C1800,34 1783.42,54.577 1772.42,79.577C1771.42,81.577 1761,70 1747,56C1708,17 1660,26 1660,72C1660,91 1655,92 1605,92L1575,91Z" style="fill:rgb(0,175,239);fill-rule:nonzero;"/>
        <path d="M1833.52,376.197C1824.52,364.197 1821.8,338.846 1821.8,321.846C1821.8,305.846 1808,270 1794,240L1768,185L1751.52,217.478C1737.4,249.647 1734.25,308.877 1741.69,309.302C1747.93,309.657 1761.85,307.667 1765.56,316.506C1774.35,337.405 1772,330 1751,330C1739,330 1721,335 1711,342C1695,351 1683,346 1629,309C1595,285 1558,251 1548,234C1510,169 1564.87,145.028 1607.87,207.028C1620.87,227.028 1638.83,242.281 1640.83,240.281C1643.83,237.281 1630,216 1615,196C1601,177 1585,149 1581,133C1574,107 1607,99 1607,99C1649,110 1665,123 1680,161C1687,177 1695,189 1697,186C1699,184 1693,165 1683,143C1658,95 1665,46 1697,42C1722,38 1762,78 1767,112C1769.87,130.375 1774.58,148.764 1777.34,147.257C1779.39,146.14 1780,129.773 1780,117C1780,47 1820,10 1851,51C1870,76 1870,113 1851,163C1847.48,172.375 1834.16,204.218 1836.17,204.578C1839.31,205.14 1862.62,167.203 1887,141C1929,97 1938,92 1959,101C1980,109 1982,115 1977,147C1973,168 1962,196 1951,210L1921.41,247.266L1976.87,229.691C2035.87,228.691 2043,254 2000,304C1973,334 1875,400 1857,400C1854,400 1841.52,388.197 1833.52,376.197Z" style="fill:rgb(0,175,239);fill-rule:nonzero;"/>
        <g transform="matrix(10.6444,0,0,-10,-73.6021,900.895)">
            <path d="M99.642,43.307L99.642,34.216L101.914,34.216C102.76,34.216 103.314,34.26 103.574,34.347C103.99,34.487 104.332,34.787 104.602,35.246C104.872,35.705 105.007,36.296 105.007,37.019C105.007,37.677 104.891,38.227 104.658,38.672C104.425,39.116 104.133,39.428 103.784,39.608C103.434,39.788 102.832,39.878 101.978,39.878L101.052,39.878L101.052,43.307L99.642,43.307ZM101.052,35.754L101.052,38.34L101.834,38.34C102.36,38.34 102.717,38.301 102.906,38.222C103.094,38.143 103.249,38.001 103.37,37.796C103.49,37.591 103.551,37.339 103.551,37.041C103.551,36.738 103.489,36.484 103.364,36.276C103.239,36.069 103.086,35.93 102.903,35.86C102.72,35.789 102.332,35.754 101.741,35.754L101.052,35.754Z" style="fill:rgb(0,175,239);fill-rule:nonzero;"/>
            <path d="M106.161,35.829L106.161,34.216L107.506,34.216L107.506,35.829L106.161,35.829ZM106.161,43.307L106.161,36.722L107.506,36.722L107.506,43.307L106.161,43.307Z" style="fill:rgb(0,175,239);fill-rule:nonzero;"/>
            <path d="M113.495,43.307L112.15,43.307L112.15,39.942C112.15,39.268 112.124,38.819 112.074,38.595C112.023,38.372 111.929,38.2 111.791,38.08C111.653,37.96 111.497,37.9 111.322,37.9C111.097,37.9 110.893,37.977 110.711,38.133C110.528,38.288 110.4,38.502 110.326,38.775C110.252,39.048 110.215,39.564 110.215,40.321L110.215,43.307L108.87,43.307L108.87,36.722L110.116,36.722L110.116,37.683C110.338,37.311 110.587,37.032 110.865,36.846C111.143,36.66 111.45,36.567 111.788,36.567C112.181,36.567 112.512,36.675 112.782,36.892C113.052,37.11 113.238,37.389 113.341,37.73C113.444,38.072 113.495,38.565 113.495,39.211L113.495,43.307Z" style="fill:rgb(0,175,239);fill-rule:nonzero;"/>
            <path d="M117.177,36.722L117.177,38.111L116.263,38.111L116.263,40.769C116.263,41.345 116.276,41.678 116.303,41.769C116.358,41.935 116.468,42.017 116.635,42.017C116.76,42.017 116.938,41.962 117.171,41.85L117.288,43.202C116.977,43.375 116.626,43.462 116.233,43.462C115.892,43.462 115.618,43.375 115.412,43.202C115.206,43.028 115.068,42.777 114.998,42.45C114.944,42.21 114.917,41.722 114.917,40.985L114.917,38.111L114.299,38.111L114.299,36.722L114.917,36.722L114.917,35.413L116.263,34.396L116.263,36.722L117.177,36.722Z" style="fill:rgb(0,175,239);fill-rule:nonzero;"/>
            <path d="M121.442,43.307L121.442,42.322C121.256,42.679 121.011,42.959 120.709,43.16C120.406,43.362 120.09,43.462 119.761,43.462C119.428,43.462 119.129,43.369 118.865,43.183C118.602,42.997 118.405,42.732 118.275,42.389C118.145,42.045 118.08,41.546 118.08,40.893L118.08,36.722L119.426,36.722L119.426,39.748C119.426,40.612 119.446,41.161 119.487,41.394C119.528,41.628 119.618,41.809 119.757,41.937C119.896,42.065 120.065,42.129 120.262,42.129C120.487,42.129 120.694,42.045 120.884,41.878C121.074,41.71 121.198,41.495 121.258,41.233C121.318,40.97 121.348,40.393 121.348,39.5L121.348,36.722L122.694,36.722L122.694,43.307L121.442,43.307Z" style="fill:rgb(0,175,239);fill-rule:nonzero;"/>
            <path d="M125.38,43.307L124.034,43.307L124.034,36.722L125.281,36.722L125.281,37.658C125.494,37.22 125.686,36.928 125.855,36.784C126.024,36.639 126.219,36.567 126.44,36.567C126.747,36.567 127.04,36.676 127.32,36.895L126.9,38.415C126.679,38.224 126.469,38.129 126.271,38.129C126.085,38.129 125.921,38.203 125.779,38.35C125.637,38.497 125.535,38.763 125.473,39.147C125.411,39.532 125.38,40.24 125.38,41.271L125.38,43.307Z" style="fill:rgb(0,175,239);fill-rule:nonzero;"/>
            <path d="M128.899,38.725L127.681,38.439C127.829,37.774 128.072,37.295 128.412,37.004C128.752,36.712 129.24,36.567 129.877,36.567C130.444,36.567 130.877,36.651 131.176,36.821C131.475,36.991 131.689,37.221 131.817,37.513C131.945,37.805 132.01,38.336 132.01,39.105L131.998,41.141C131.998,41.712 132.019,42.137 132.062,42.417C132.105,42.696 132.184,42.993 132.301,43.307L130.973,43.307L130.798,42.588C130.569,42.877 130.323,43.095 130.061,43.242C129.799,43.389 129.52,43.462 129.225,43.462C128.732,43.462 128.328,43.285 128.013,42.931C127.698,42.577 127.541,42.106 127.541,41.519C127.541,41.146 127.605,40.821 127.733,40.544C127.862,40.266 128.042,40.045 128.275,39.879C128.508,39.714 128.881,39.567 129.394,39.438C130.015,39.285 130.448,39.142 130.693,39.01C130.693,38.644 130.669,38.404 130.62,38.29C130.572,38.175 130.482,38.082 130.352,38.009C130.222,37.936 130.038,37.9 129.802,37.9C129.561,37.9 129.371,37.958 129.234,38.073C129.096,38.189 128.984,38.406 128.899,38.725ZM130.693,40.145C130.522,40.219 130.256,40.306 129.895,40.406C129.479,40.522 129.207,40.651 129.079,40.792C128.951,40.932 128.887,41.115 128.887,41.339C128.887,41.592 128.958,41.804 129.1,41.976C129.241,42.148 129.419,42.234 129.633,42.234C129.823,42.234 130.011,42.165 130.198,42.026C130.384,41.887 130.513,41.722 130.585,41.532C130.657,41.341 130.693,40.995 130.693,40.493L130.693,40.145Z" style="fill:rgb(0,175,239);fill-rule:nonzero;"/>
            <path d="M132.866,41.435L134.212,41.168C134.328,41.858 134.689,42.203 135.295,42.203C135.618,42.203 135.858,42.137 136.018,42.005C136.177,41.873 136.256,41.701 136.256,41.49C136.256,41.345 136.222,41.231 136.152,41.149C136.078,41.066 135.932,40.994 135.713,40.932C134.611,40.62 133.911,40.323 133.612,40.041C133.239,39.689 133.052,39.206 133.052,38.593C133.052,37.98 133.235,37.489 133.6,37.12C133.965,36.751 134.495,36.567 135.19,36.567C135.855,36.567 136.359,36.704 136.705,36.979C137.051,37.254 137.293,37.697 137.433,38.309L136.169,38.613C136.056,38.084 135.738,37.819 135.214,37.819C134.884,37.819 134.649,37.87 134.509,37.971C134.369,38.073 134.299,38.205 134.299,38.366C134.299,38.511 134.363,38.631 134.491,38.727C134.619,38.826 135.017,38.976 135.685,39.177C136.434,39.403 136.943,39.675 137.211,39.994C137.476,40.312 137.608,40.736 137.608,41.266C137.608,41.903 137.403,42.428 136.993,42.842C136.584,43.255 136.018,43.462 135.295,43.462C134.639,43.462 134.103,43.29 133.687,42.944C133.272,42.599 132.998,42.096 132.866,41.435Z" style="fill:rgb(0,175,239);fill-rule:nonzero;"/>
        </g>
    </g>
    <g transform="matrix(0.1,0,0,-0.1,0,90)">
        <path d="M1499.69,662.063C1497.18,659.375 1488.95,654.037 1491.2,643.696C1494.96,626.461 1511.52,601.937 1512.47,601.094C1523.22,591.605 1537.83,578.014 1556,565C1579.25,548.35 1590.04,542.904 1599.92,531.467C1609.59,520.273 1622.78,504.073 1629,473C1645.02,430.755 1677.49,375.247 1701.68,345.117C1707.21,338.226 1723.18,332.915 1739.51,330.859C1744.77,330.197 1749.47,329.811 1755.44,330.121C1761.16,330.419 1768.31,331.53 1769.34,331.119C1770.11,330.918 1770.42,330.231 1770.38,329.229C1770.32,328.086 1769.75,326.637 1768.98,324.818C1768.14,322.803 1767.39,320.403 1766.3,318.283C1765.61,316.957 1765.09,315.442 1764.32,314.37C1763.41,313.116 1762.25,312.372 1761.32,311.779C1760.63,311.337 1757.95,310.261 1754.96,309.784C1751.52,309.236 1747.69,309.318 1746.42,309.352C1746.01,309.363 1742.57,310.187 1740.84,309.109C1739.23,308.109 1738.17,304.777 1737.94,302.799C1737.36,297.521 1737.34,290.542 1737.72,283.126C1738.65,264.558 1741.38,245.666 1748.56,225.014C1756.89,201.033 1768.84,185.436 1768.84,185.436C1768.84,185.436 1785.58,218.263 1800.14,252.498C1805.87,265.962 1812.19,282.788 1815.63,293.175C1817.62,299.175 1818.5,304.307 1820.44,310.237C1822.71,317.205 1822.11,324.454 1822.41,331.28C1822.87,341.815 1823.68,351.643 1826.49,360.214C1832.89,379.741 1847.51,392.609 1849.25,395.113C1849.49,395.459 1846.51,406.409 1846.15,409.149C1845.41,414.906 1845.3,422.517 1844.52,429.545C1842.94,443.664 1840.63,457.42 1839,463C1830.96,491.806 1797.49,545.234 1762.54,569.958C1747.44,580.637 1715.78,600.626 1716,599.467C1715.43,599.658 1795.9,599.246 1812,600C1820.38,599.135 1834.11,600.958 1849.86,602.362C1865.74,603.777 1883.66,604.792 1899.33,608.421C1910.86,611.089 1920.53,614.891 1928.19,618.121C1935.85,621.351 1947.14,626.607 1947.1,626.989C1947.01,627.76 1925.09,620.376 1906.12,617.249C1883.85,613.577 1857.71,611.365 1847.31,610.845C1828.72,610.054 1803.35,608.979 1786.5,614.089C1763.33,621.116 1744.01,627.394 1737.97,629.812C1722.44,629.81 1685.65,628.127 1642.84,650.814C1559.84,686.814 1530.88,686.064 1499.69,662.063ZM1610,607C1610,588 1609,588 1592,603C1582,613 1567,620 1560,620C1551,620 1553,625 1566,634C1589,651 1610,638 1610,607Z" style="fill:rgb(84,255,30);fill-rule:nonzero;"/>
        <path d="M1444,165C1370.12,173.629 1146.59,183.84 957.801,179.25C791.727,175.212 628.531,126.708 630.835,124.865C633.835,121.865 719.904,132.382 795,140C834.217,143.979 874.033,149.592 907.593,150.628C933.079,151.415 979.772,146.986 981.067,146.123C983.067,143.123 887,137 834,130C809.167,127.241 767.753,124.356 740.425,118.106C708.328,110.766 692.16,100.146 693.256,99.805C695.046,99.247 713.281,102.594 725,104C742,107 782,111 815,114C842.656,115.875 899.384,118.409 899.258,117.393C899.116,116.242 830.473,107.124 789.567,99.155C746.567,91.155 706.903,82.412 708.903,80.412C710.903,78.412 802.194,90.92 859.194,95.92C919.779,101.709 1001.52,105.76 1079.98,109.124C1093.45,109.702 1108,110.623 1121.15,111.131C1180.27,113.417 1234.27,113.623 1272.96,114.025C1305.46,114.362 1327.25,115.2 1331.26,113.95C1339.26,111.95 1432.24,114.767 1496.24,111.767C1538.5,109.495 1557.97,107.607 1567.2,105.57C1572.85,104.326 1574.28,102.337 1574.78,102.405C1574.82,102.41 1574.87,102.568 1574.9,102.643C1576.24,106.194 1581.77,118.412 1581.22,119.37C1580.36,120.855 1579.67,125.808 1580.46,130.24C1581.87,138.083 1585.76,146.483 1586.08,146.764C1586.73,147.333 1522.55,155.304 1444,165Z" style="fill:rgb(84,255,30);fill-rule:nonzero;"/>
        <path d="M2157.23,156.808C2154.07,156.808 2123.57,142.996 2085.23,133.973C2050.77,125.865 2008.97,122.626 1991.93,119.786C1988.98,119.321 1973.84,86.626 1949.43,87.075C1943.55,87.183 1926.17,88.928 1914.02,97.432C1908.47,101.321 1898.45,117.749 1896.05,118.876C1892.85,120.382 1871.08,119.047 1871.01,118.9C1868.45,114.04 1870,99.867 1870,90C1870,80.833 1870.21,74.453 1871.77,70.017C1872.29,68.509 1917.25,69.068 1933.23,70.292C1961.07,72.425 1994.63,76.003 2025.66,80.527C2057.61,85.184 2091.59,92.049 2111.86,98.519C2127.3,103.448 2134.45,108.989 2128.65,108.216L2043,91.403C2043,91.403 2077.35,102.245 2107.94,118.647C2137.88,134.7 2164.15,156.314 2157.23,156.808Z" style="fill:rgb(84,255,30);fill-rule:nonzero;"/>
        <path d="M1640,100C1639.88,99.26 1639.99,91.255 1640.06,91.2C1640.19,91.094 1642.15,90.955 1642.84,90.866C1645.51,90.515 1648.12,89.643 1650.08,89.508C1653.42,89.277 1654.26,89.001 1655.84,89.15C1657.47,89.304 1658.98,89.317 1660.11,89.884C1662.32,91.001 1663.31,103.912 1660.07,109.61C1660.34,110.146 1654.99,110 1651.08,110C1642.08,110 1640.92,105.929 1640,100Z" style="fill:rgb(84,255,30);fill-rule:nonzero;"/>
        <path d="M1760,80C1760,78.852 1759.64,69.172 1760.04,69.28C1760.91,69.514 1764.85,74.022 1768.1,77.004C1769.93,78.689 1771.82,79.659 1772.1,79.659C1772.45,79.659 1773.89,76.552 1774.05,76.142C1774.38,75.253 1776.81,69.162 1777.27,69.206C1777.77,69.255 1780,78.33 1780,80C1780,82.871 1780.34,86.628 1778.73,88.364C1776.97,90.256 1773.13,90 1770,90C1767.25,90 1763.57,90.215 1761.65,88.123C1760.09,86.416 1760,82.696 1760,80Z" style="fill:rgb(84,255,30);fill-rule:nonzero;"/>
    </g>
    <g transform="matrix(0.1,0,0,-0.1,0,90)">
        <path d="M1997.66,841.208C1960.2,813.737 1919.25,788.326 1876.79,769.337C1853.5,758.918 1829.78,749.474 1806.35,739.364C1792.68,733.463 1779.91,728.146 1767.61,719.736C1751.17,708.494 1736.6,696.619 1726.13,680.08L1710,645C1710,645 1733.25,632.374 1737.7,629.92C1744.26,626.305 1782.38,612.079 1804.67,610.768C1849.85,608.109 1901.08,613.837 1944.58,625.987C1958.62,629.908 1971.72,636.69 1985.58,641.195C1995.63,644.462 2006.04,646.517 2016.25,649.278C2020.78,650.504 2025.59,651.041 2029.78,653.155C2031.66,654.104 2028.23,657.467 2026.39,658.482C2022.37,660.691 2018.21,662.722 2013.86,664.165L1985.62,675.792C1985.62,675.792 2004.95,684.287 2014.45,688.883C2021.12,692.107 2035.69,699.412 2033.14,709.571C2029.62,723.579 2010.05,719.479 2000.34,719.01C1996.04,718.803 1991.14,717.765 1988.31,722.093C1987.18,723.806 1991.61,727.41 1991.78,727.514C1996.55,730.305 2001.64,732.507 2006.6,734.92C2018.7,740.797 2033.17,746.869 2038.62,760.459C2039.38,762.355 2039.86,764.438 2039.76,766.478C2039.17,778.077 2026.53,772.454 2020.84,777.879C2015.7,782.775 2020.47,791.043 2025,794C2032.76,795.94 2046.35,800.043 2049.23,808.995C2052.15,818.086 2037.98,819.145 2033,820C2032.37,820.108 2022.38,820.297 2024.43,824.926C2028.06,833.128 2033.99,838.166 2040,845C2048.18,854.299 2053.65,859.769 2060.13,869.936C2061.89,872.698 2063.51,875.582 2064.68,878.639C2070.26,893.162 2052.44,883.596 2048.09,880.718C2043.78,877.858 2039.77,874.556 2035.65,871.419C2029.95,867.084 2024.24,862.76 2018.64,858.304C2011.58,852.689 2004.42,847.189 1997.66,841.208Z" style="fill:rgb(0,168,89);fill-rule:nonzero;"/>
        <path d="M2061,660C2044.8,657.098 2014.35,650.723 1977.42,638.825C1952.85,630.909 1929.91,617.958 1900.6,609.042C1882.56,603.557 1826.22,600.35 1800,600L1715,600L1745,581C1793,552 1821,515 1841,458C1845.11,435.19 1845.45,405.926 1849.2,395.451C1849.5,394.618 1859.3,398.502 1859.44,399.059C1862.15,409.182 1859.28,460.311 1859.8,460.597C1862.62,462.118 1868.79,459.744 1881,463C1896,467 1901,474 1896,485C1879.09,504.776 1896,500 1925,494C1948,490 1960,492 1960,499C1960,507 1974,508 2002,504C2032,499 2043.7,502.545 2036,508C2009.65,526.677 2041,520 2069,520C2118,520 2147,530 2130,540C2098.36,550.981 2146,551 2181,555C2247,562 2296,579 2253,580C2241,580 2228,585 2225,590C2221,596 2233,600 2254,600C2273,600 2301,605 2317,612C2344,623 2344,624 2323,627C2284,634 2298,647 2349,654C2376,658 2409,669 2422,680L2445,700L2410,695C2391,692 2311,685 2233,680C2155,674 2078.44,663.124 2061,660Z" style="fill:rgb(0,131,73);fill-rule:nonzero;"/>
        <path d="M1530,650C1530,645 1535,640 1540,640C1546,640 1550,645 1550,650C1550,656 1546,660 1540,660C1535,660 1530,656 1530,650Z" style="fill:rgb(0,131,73);fill-rule:nonzero;"/>
        <g transform="matrix(10,0,0,-10,0,900)">
            <path d="M146.812,54.473C146.401,54.462 145.68,54.2 145,54.2C143.6,54.2 143.1,54.4 143.8,54.7C144.4,54.9 145.641,54.968 146.341,54.768C146.643,54.682 146.656,54.558 146.837,54.517C147.082,54.463 147.523,54.507 147.815,54.441C148.467,54.293 148.901,54.116 148.923,54.11C150.403,53.66 153.7,50.5 154.9,48.3C156.3,45.4 154.5,44.8 149.6,46.5C144.5,48.3 140.2,52.4 137.4,58.5C134.7,64.3 134.4,67.3 136.5,69C139.3,71.3 147.7,66.5 150.5,60.9C152.6,56.9 151.6,57.2 149,61.5C146.5,65.5 142,68.3 139.5,67.3C135.2,65.7 141.4,51.2 147.6,48.3C148.734,47.733 150.308,47.013 151.639,47.277C152.136,47.375 152.526,47.664 152.567,48.204C152.66,49.453 151.415,50.589 150.7,51.4C150.162,52.011 149.593,52.596 149.075,53.225C148.935,53.395 148.688,53.637 148.499,53.75C148.328,53.851 147.886,54.098 147.467,54.264C147.202,54.369 147.041,54.479 146.812,54.473Z" style="fill:rgb(0,131,73);fill-rule:nonzero;"/>
        </g>
        <path d="M1315,431C1197,378 1119,183 1223,204C1259,211 1316,254 1338,290C1347,306 1340,301 1319,278C1289,246 1252,220 1236,220C1218,220 1201,254 1206,278C1225,355 1280,420 1328,420C1347,420 1351,416 1347,400C1344,389 1343,380 1345,380C1349,380 1380,440 1380,447C1380,455 1352,448 1315,431Z" style="fill:rgb(0,131,73);fill-rule:nonzero;"/>
        <path d="M1113,424C1060,405 985,339 960,289C908,189 968,180 1068,273C1104,308 1107,305 1083,255C1062,212 1067.58,201.24 1110.58,221.24C1116.36,223.672 1125.88,229.137 1129.06,231.411C1136.33,236.618 1131.99,241.265 1124.33,239.177C1105.33,233.177 1107,237 1126,299C1131,318 1130,321 1120,315C1110,309 1109,311 1115,326C1119,336 1125,359 1127,375C1131,399 1127,395 1107,354C1059,255 970,193 970,259C970,329 1065,410 1155,418C1185,420 1213,426 1216,431C1224,445 1160,440 1113,424Z" style="fill:rgb(0,131,73);fill-rule:nonzero;"/>
        <path d="M965,438C954,432 930,414 913,397C877,364 874,365 892,405C906,436 898,445 873,429C867.974,426.294 834.068,410.159 831.375,405.948C829.881,403.61 829.358,396.017 835.737,396.347C842.69,396.705 856.664,404.984 856.586,401.818C856.531,399.587 856.67,397.307 857,395C860,383 848,338 831,295C814,251 802,214 805,212C815,202 829,224 849,280C874,348 935,420 968,420C981,420 990,426 990,435C990,453 991,453 965,438Z" style="fill:rgb(0,131,73);fill-rule:nonzero;"/>
        <path d="M615,706C554,687 518,665 479,623C425,567 406,524 406,457C405,403 408,396 438,369C499,314 598,336 674,421C709,459 714.567,464.433 709.567,503.433C705.567,546.433 706.301,543.766 735.301,543.766C773.301,543.766 774,534 755,459C711,286 602,132 483,74C408,37 298,29 219,55C31,118 -40,382 110,461C171,494 241,482 307,426C325,411 374,346 416,282C458,218 494,164 495,162C497,160 514.658,166.859 536.658,178.859C545.387,183.621 562.737,191.131 566.566,193.618C568.034,194.571 568.954,195.531 569.424,196.413C569.904,197.312 568.016,200.186 566.536,200.242C565.301,200.289 563.795,199.987 562.156,199.217C560.434,198.409 556.761,196.32 555,196C526,188 520,195 451,300C346,459 305,490 200,490C133,490 99,476 58,433C21,394 10,360 10,284C10,144 94,45 234,19C428,-17 636,116 744,343C782,423 832.225,547.504 821.225,557.504C817.225,561.504 772.509,559.707 716.509,559.707C659.277,561.254 601.781,561.591 591.477,559.423C589.944,559.1 588.757,540.679 590.701,539.889C597.342,537.19 627.253,542.375 633.052,539.603C659.041,527.179 675.935,513.343 678,492C685,426 618,360 545,360C516,360 501,367 474,394C445,423 440,435 440,477C440,544 479,619 531,656C589.263,695.952 688.399,700.572 710.204,672.745C714.596,667.139 712.996,649.851 710.146,641.635C709.723,640.367 720.608,638.995 723.759,642.146C729.759,648.146 731,670 735,688L742,720L698,719C674,719 637,713 615,706Z" style="fill:rgb(0,131,73);fill-rule:nonzero;"/>
    </g>
</svg>
