<?xml version="1.0" encoding="UTF-8" standalone="no"?>
<!DOCTYPE svg PUBLIC "-//W3C//DTD SVG 1.1//EN" "http://www.w3.org/Graphics/SVG/1.1/DTD/svg11.dtd">
<svg width="100%" height="100%" viewBox="0 0 100 100" version="1.1" xmlns="http://www.w3.org/2000/svg"
    xmlns:xlink="http://www.w3.org/1999/xlink" xml:space="preserve" xmlns:serif="http://www.serif.com/"
    style="fill-rule:evenodd;clip-rule:evenodd;stroke-linecap:round;stroke-linejoin:round;stroke-miterlimit:1.5;">
    <g transform="matrix(1,0,0,1,1.0215,-4.507)">
        <g transform="matrix(1.14637,0,0,1.14637,-7.1689,-0.659682)">
            <path
                d="M83.986,18.725C83.986,18.725 78.678,22.707 71.933,21.937C67.92,21.479 63.399,18.108 59.184,18.092C54.402,18.073 50.015,
            20.972 47.214,20.725C44.747,20.506 41.452,19.782 38.261,18.95C32.704,17.501 25.464,20.725 25.464,20.725L25.464,45.072C25.464,
            45.072 32.184,42.149 37.597,43.625C40.584,44.44 43.782,45.072 46.514,45.072C49.424,45.072 54.112,42.072 59.201,42.072C63.43,
            42.072 67.937,45.486 71.931,46.007C78.692,46.887 83.986,43.072 83.986,43.072C83.986,43.072 78.477,38.938 76.544,37.166C74.827,
            35.591 72.391,32.442 72.391,32.442C72.391,32.442 75.956,27.224 77.739,25.115C79.671,22.829 83.986,18.725 83.986,18.725Z"
                style="fill:none;stroke:rgb(255,255,255);stroke-width:1.5px;" />
        </g>
        <g transform="matrix(1.14637,0,0,1.14637,-7.1689,-0.659682)">
            <path
                d="M18.594,18.935C15.881,17.805 13.971,15.127 13.971,12.007C13.971,7.868 17.332,4.507 21.471,4.507C25.61,4.507 28.971,
            7.868 28.971,12.007C28.971,14.714 27.534,17.087 25.383,18.406L25.406,18.406L25.406,91.739L18.594,91.739L18.594,18.935Z"
                style="fill:none;stroke:rgb(255,255,255);stroke-width:1.5px;" />
        </g>
    </g>
</svg>