<?xml version="1.0" encoding="UTF-8" standalone="no"?>
<!DOCTYPE svg PUBLIC "-//W3C//DTD SVG 1.1//EN" "http://www.w3.org/Graphics/SVG/1.1/DTD/svg11.dtd">
<svg width="100%" height="100%" viewBox="0 0 100 100" version="1.1" xmlns="http://www.w3.org/2000/svg" xmlns:xlink="http://www.w3.org/1999/xlink" xml:space="preserve" xmlns:serif="http://www.serif.com/" style="fill-rule:evenodd;clip-rule:evenodd;stroke-linecap:round;stroke-linejoin:round;stroke-miterlimit:1.5;">
    <path d="M100,0L0,0L0,100L0.217,100L0.217,23.177C-0.062,20.822 -0.082,18.504 0.217,16.256L0.217,0L17.62,0C10.611,0 3.602,7.745 2.472,9.339L2.019,9.795L1.793,10.478C0.993,12.334 0.481,14.267 0.217,16.256L0.217,23.177C2.688,44.018 25.568,67.69 28.924,71.071C32.089,74.26 58.768,100 80.247,100L0.217,100L100,100L100,0L100,0L100,100L80.247,100C83.638,100 86.577,99.317 89.29,98.178L89.969,97.95L90.421,97.494C92.456,95.9 102.63,86.788 99.012,78.588C97.656,75.399 86.577,63.554 72.56,61.276L71.655,61.048L70.751,61.276C70.073,61.503 65.325,62.415 58.542,66.97C56.281,65.831 51.759,62.642 44.298,55.353C37.063,48.064 33.898,43.508 32.768,41.23C37.063,34.396 38.194,29.613 38.42,29.157L38.646,28.246L38.42,27.335C36.159,13.212 24.176,2.278 21.011,0.683C20.107,0.228 18.976,0 17.62,0L100,0Z" style="fill:rgb(0,168,89);"/>
    <g transform="matrix(1.41421,1.41421,-1.41421,1.41421,19.9555,-66.2358)">
        <path d="M35,20C38.333,18.841 45,16.522 50,16.522C55,16.522 61.667,18.841 65,20" style="fill:none;stroke:black;stroke-width:1px;"/>
        <g transform="matrix(0.666667,0,0,0.666667,16.6667,10.5072)">
            <path d="M35,20C38.333,18.841 45,16.522 50,16.522C55,16.522 61.667,18.841 65,20" style="fill:none;stroke:black;stroke-width:1.5px;"/>
        </g>
        <g transform="matrix(0.333333,0,0,0.333333,33.3333,21.0145)">
            <path d="M35,20C38.333,18.841 45,16.522 50,16.522C55,16.522 61.667,18.841 65,20" style="fill:none;stroke:black;stroke-width:3px;"/>
        </g>
    </g>
</svg>
